<svg xmlns="http://www.w3.org/2000/svg" width="200" height="200" fill="none" viewBox="0 0 200 200"><path fill="#fff" d="M14 64h172v72H14z"/><path fill="url(#paint0_linear_2089_217683)" d="M14 64h172v72H14z"/><path stroke="#000" stroke-opacity=".12" stroke-width="3" d="M15.5 65.5h169v69h-169z"/><rect width="11" height="97" x="187.5" y="51.5" fill="#d9d9d9" stroke="#727171" stroke-width="3" rx="5.5"/><rect width="11" height="97" x="1.5" y="51.5" fill="#d9d9d9" stroke="#727171" stroke-width="3" rx="5.5"/><path fill="#1c943e" d="M70.5 46a3.5 3.5 0 0 0 3.5 3.5h52a3.5 3.5 0 0 0 3.5-3.5V9A8.5 8.5 0 0 0 121 .5H79A8.5 8.5 0 0 0 70.5 9z"/><path fill="url(#paint1_linear_2089_217683)" d="M70.5 46a3.5 3.5 0 0 0 3.5 3.5h52a3.5 3.5 0 0 0 3.5-3.5V9A8.5 8.5 0 0 0 121 .5H79A8.5 8.5 0 0 0 70.5 9z"/><path stroke="#fff" d="M70.5 46a3.5 3.5 0 0 0 3.5 3.5h52a3.5 3.5 0 0 0 3.5-3.5V9A8.5 8.5 0 0 0 121 .5H79A8.5 8.5 0 0 0 70.5 9z"/><path fill="#1c943e" d="M110 136V64H89v72z"/><path fill="url(#paint2_linear_2089_217683)" d="M110 136V64H89v72z"/><path fill="url(#paint3_linear_2089_217683)" d="M110 136V64H89v72z"/><path stroke="#000" stroke-opacity=".12" d="M109.5 135.5v-71h-20v71z"/><path fill="#647484" d="M126 64a4 4 0 0 0 4-4v-6a4 4 0 0 0-4-4H74a4 4 0 0 0-4 4v6a4 4 0 0 0 4 4z"/><path fill="url(#paint4_linear_2089_217683)" d="M126 64a4 4 0 0 0 4-4v-6a4 4 0 0 0-4-4H74a4 4 0 0 0-4 4v6a4 4 0 0 0 4 4z"/><path stroke="#000" stroke-opacity=".12" stroke-width="3" d="M126 62.5a2.5 2.5 0 0 0 2.5-2.5v-6a2.5 2.5 0 0 0-2.5-2.5H74a2.5 2.5 0 0 0-2.5 2.5v6a2.5 2.5 0 0 0 2.5 2.5z"/><path d="M67.262 0S0 0 0 33.5v164.18c0 1.326 1.79 2.32 4 2.32h192c2.209 0 4-.994 4-2.32V33.5C200 0 133.93 0 133.93 0H100zm67.07 40.6c-1.289 0-2.333.627-2.333 1.4v150.2c0 .773 1.044 1.4 2.333 1.4h14.667c1.289 0 2.333-.627 2.333-1.4V42c0-.773-1.044-1.4-2.333-1.4z"/><defs><linearGradient id="paint0_linear_2089_217683" x1="58.72" x2="58.53" y1="64" y2="136" gradientUnits="userSpaceOnUse"><stop offset="0" stop-color="#727171"/><stop offset=".264" stop-color="#727171" stop-opacity=".35"/><stop offset=".418" stop-color="#727171" stop-opacity=".1"/><stop offset=".498" stop-color="#fff" stop-opacity="0"/><stop offset=".581" stop-color="#727171" stop-opacity=".1"/><stop offset=".719" stop-color="#727171" stop-opacity=".35"/><stop offset="1" stop-color="#727171"/></linearGradient><linearGradient id="paint1_linear_2089_217683" x1="134.3" x2="65.705" y1="8.04" y2="9.031" gradientUnits="userSpaceOnUse"><stop offset="0" stop-color="#020202" stop-opacity=".35"/><stop offset=".141" stop-color="#020202" stop-opacity=".12"/><stop offset=".399" stop-color="#fff" stop-opacity=".12"/><stop offset=".498" stop-color="#fff" stop-opacity=".3"/><stop offset=".597" stop-color="#fff" stop-opacity=".12"/><stop offset=".859" stop-color="#020202" stop-opacity=".12"/><stop offset="1" stop-color="#020202" stop-opacity=".35"/></linearGradient><linearGradient id="paint2_linear_2089_217683" x1="99.475" x2="100.06" y1="64" y2="134.92" gradientUnits="userSpaceOnUse"><stop offset="0" stop-color="#020202" stop-opacity=".35"/><stop offset=".158" stop-color="#020202" stop-opacity=".15"/><stop offset=".282" stop-color="#fff" stop-opacity=".12"/><stop offset=".503" stop-color="#fff" stop-opacity=".2"/><stop offset=".721" stop-color="#fff" stop-opacity=".12"/><stop offset=".842" stop-color="#020202" stop-opacity=".15"/><stop offset=".993" stop-color="#020202" stop-opacity=".35"/></linearGradient><linearGradient id="paint3_linear_2089_217683" x1="110" x2="89" y1="100" y2="100" gradientUnits="userSpaceOnUse"><stop offset=".01" stop-color="#020202" stop-opacity=".2"/><stop offset=".05" stop-color="#020202" stop-opacity=".12"/><stop offset=".153" stop-color="#fff" stop-opacity=".12"/><stop offset=".5" stop-color="#fff" stop-opacity=".2"/><stop offset=".85" stop-color="#fff" stop-opacity=".12"/><stop offset=".95" stop-opacity=".12"/><stop offset="1" stop-opacity=".2"/></linearGradient><linearGradient id="paint4_linear_2089_217683" x1="72.287" x2="127.11" y1="55.78" y2="57.142" gradientUnits="userSpaceOnUse"><stop offset="0" stop-color="#020202" stop-opacity=".2"/><stop offset=".091" stop-color="#020202" stop-opacity=".18"/><stop offset=".1" stop-color="#020202" stop-opacity=".1"/><stop offset=".205" stop-color="#020202" stop-opacity=".08"/><stop offset=".216" stop-color="#020202" stop-opacity=".05"/><stop offset=".37" stop-color="#020202" stop-opacity=".02"/><stop offset=".378" stop-color="#fff" stop-opacity=".01"/><stop offset=".624" stop-color="#fff" stop-opacity=".01"/><stop offset=".631" stop-color="#020202" stop-opacity=".02"/><stop offset=".776" stop-color="#020202" stop-opacity=".05"/><stop offset=".79" stop-color="#020202" stop-opacity=".08"/><stop offset=".9" stop-color="#020202" stop-opacity=".1"/><stop offset=".908" stop-color="#020202" stop-opacity=".18"/><stop offset="1" stop-color="#020202" stop-opacity=".2"/></linearGradient></defs></svg>