<svg xmlns="http://www.w3.org/2000/svg" width="880" height="640" fill="none" viewBox="0 0 880 640"><defs><pattern id="dots" width="14" height="14" patternUnits="userSpaceOnUse"><circle cx="3" cy="3" r="1" fill="#c1c3c8" opacity=".5"/></pattern><marker id="chevGrey" markerHeight="10" markerUnits="userSpaceOnUse" markerWidth="10" orient="auto" refX="8" refY="5"><path stroke="#888c96" stroke-linecap="round" stroke-linejoin="round" stroke-width="1.5" d="M2 1.5 8 5 2 8.5"/></marker></defs><path fill="#fff" d="M0 0h880v640H0z"/><path fill="url(#dots)" d="M0 0h880v640H0z"/><text x="24" y="36" fill="#17181c" font-family="Inter, system-ui, -apple-system, 'Segoe UI', Roboto, Arial, sans-serif" font-size="15" font-weight="600">Unbalance</text><text x="24" y="54" fill="#5b5f6b" font-family="Inter, system-ui, -apple-system, 'Segoe UI', Roboto, Arial, sans-serif" font-size="12.5" font-weight="500">uneven mass around the rotor</text><text x="24" y="74" fill="#0f1c8a" font-family="Inter, system-ui, -apple-system, 'Segoe UI', Roboto, Arial, sans-serif" font-size="12.5" font-weight="600">Signature: the 1× peak dominates</text><path fill="#555962" d="M60 120h200v10H60z"/><circle cx="160" cy="125" r="30" fill="#edeef3" stroke="#555962" stroke-width="1.5"/><circle cx="180.9" cy="103.5" r="5" fill="#f5bb3d" stroke="#fff" stroke-width="1.5"/><text x="200" y="103" fill="#73520d" font-family="Inter, system-ui, -apple-system, 'Segoe UI', Roboto, Arial, sans-serif" font-size="12" font-weight="600">heavy spot</text><rect width="11.3" height="112" x="508.7" y="28" fill="#cfd4fc" opacity=".6" rx="3"/><path fill="#3d50f5" d="m510.82 140 3.5-96 3.5 96Z"/><text x="514.32" y="37" fill="#0f1c8a" font-family="Inter, system-ui, -apple-system, 'Segoe UI', Roboto, Arial, sans-serif" font-size="12" font-weight="600" text-anchor="middle">1×</text><path fill="#3d50f5" d="m539.14 140 3.5-14 3.5 14Zm28.32 0 3.5-9 3.5 9Z"/><path stroke="#888c96" stroke-linecap="round" stroke-width="1.5" marker-end="url(#chevGrey)" d="M482 140h366"/><path stroke="#888c96" d="M514.32 140v4"/><text x="514.32" y="156" fill="#5b5f6b" font-family="Inter, system-ui, -apple-system, 'Segoe UI', Roboto, Arial, sans-serif" font-size="11.5" font-weight="500" text-anchor="middle">1×</text><path stroke="#888c96" d="M542.64 140v4"/><text x="542.64" y="156" fill="#5b5f6b" font-family="Inter, system-ui, -apple-system, 'Segoe UI', Roboto, Arial, sans-serif" font-size="11.5" font-weight="500" text-anchor="middle">2×</text><path stroke="#888c96" d="M570.96 140v4"/><text x="570.96" y="156" fill="#5b5f6b" font-family="Inter, system-ui, -apple-system, 'Segoe UI', Roboto, Arial, sans-serif" font-size="11.5" font-weight="500" text-anchor="middle">3×</text><path stroke="#888c96" d="M599.28 140v4"/><text x="599.28" y="156" fill="#5b5f6b" font-family="Inter, system-ui, -apple-system, 'Segoe UI', Roboto, Arial, sans-serif" font-size="11.5" font-weight="500" text-anchor="middle">4×</text><path stroke="#888c96" d="M655.92 140v4"/><text x="655.92" y="156" fill="#5b5f6b" font-family="Inter, system-ui, -apple-system, 'Segoe UI', Roboto, Arial, sans-serif" font-size="11.5" font-weight="500" text-anchor="middle">6×</text><path stroke="#888c96" d="M712.56 140v4"/><text x="712.56" y="156" fill="#5b5f6b" font-family="Inter, system-ui, -apple-system, 'Segoe UI', Roboto, Arial, sans-serif" font-size="11.5" font-weight="500" text-anchor="middle">8×</text><path stroke="#888c96" d="M769.2 140v4"/><text x="769.2" y="156" fill="#5b5f6b" font-family="Inter, system-ui, -apple-system, 'Segoe UI', Roboto, Arial, sans-serif" font-size="11.5" font-weight="500" text-anchor="middle">10×</text><path stroke="#888c96" d="M825.84 140v4"/><text x="825.84" y="156" fill="#5b5f6b" font-family="Inter, system-ui, -apple-system, 'Segoe UI', Roboto, Arial, sans-serif" font-size="11.5" font-weight="500" text-anchor="middle">12×</text><path stroke="#c1c3c8" d="M20 165h840"/><text x="24" y="191" fill="#17181c" font-family="Inter, system-ui, -apple-system, 'Segoe UI', Roboto, Arial, sans-serif" font-size="15" font-weight="600">Misalignment</text><text x="24" y="209" fill="#5b5f6b" font-family="Inter, system-ui, -apple-system, 'Segoe UI', Roboto, Arial, sans-serif" font-size="12.5" font-weight="500">coupled shafts that do not share an axis</text><text x="24" y="229" fill="#0f1c8a" font-family="Inter, system-ui, -apple-system, 'Segoe UI', Roboto, Arial, sans-serif" font-size="12.5" font-weight="600">Signature: 2× rises above 1×</text><path fill="#555962" d="M50 271h110v10H50zm110 8h110v10H160z"/><rect width="40" height="40" x="140" y="260" fill="#edeef3" stroke="#555962" stroke-width="1.5" rx="5"/><path stroke="#3d50f5" stroke-dasharray="4 3" d="M40 276h250"/><path stroke="#f5bb3d" stroke-dasharray="4 3" d="M40 284h250"/><text x="296" y="288" fill="#73520d" font-family="Inter, system-ui, -apple-system, 'Segoe UI', Roboto, Arial, sans-serif" font-size="12" font-weight="600">offset</text><text x="160" y="318" fill="#5b5f6b" font-family="Inter, system-ui, -apple-system, 'Segoe UI', Roboto, Arial, sans-serif" font-size="11.5" font-weight="500" text-anchor="middle">coupling</text><rect width="11.3" height="112" x="537" y="183" fill="#cfd4fc" opacity=".6" rx="3"/><path fill="#3d50f5" d="m510.82 295 3.5-46 3.5 46Z"/><text x="514.32" y="242" fill="#0f1c8a" font-family="Inter, system-ui, -apple-system, 'Segoe UI', Roboto, Arial, sans-serif" font-size="12" font-weight="600" text-anchor="middle">1×</text><path fill="#3d50f5" d="m539.14 295 3.5-96 3.5 96Z"/><text x="542.64" y="192" fill="#0f1c8a" font-family="Inter, system-ui, -apple-system, 'Segoe UI', Roboto, Arial, sans-serif" font-size="12" font-weight="600" text-anchor="middle">2×</text><path fill="#3d50f5" d="m567.46 295 3.5-22 3.5 22Z"/><path stroke="#888c96" stroke-linecap="round" stroke-width="1.5" marker-end="url(#chevGrey)" d="M482 295h366"/><path stroke="#888c96" d="M514.32 295v4"/><text x="514.32" y="311" fill="#5b5f6b" font-family="Inter, system-ui, -apple-system, 'Segoe UI', Roboto, Arial, sans-serif" font-size="11.5" font-weight="500" text-anchor="middle">1×</text><path stroke="#888c96" d="M542.64 295v4"/><text x="542.64" y="311" fill="#5b5f6b" font-family="Inter, system-ui, -apple-system, 'Segoe UI', Roboto, Arial, sans-serif" font-size="11.5" font-weight="500" text-anchor="middle">2×</text><path stroke="#888c96" d="M570.96 295v4"/><text x="570.96" y="311" fill="#5b5f6b" font-family="Inter, system-ui, -apple-system, 'Segoe UI', Roboto, Arial, sans-serif" font-size="11.5" font-weight="500" text-anchor="middle">3×</text><path stroke="#888c96" d="M599.28 295v4"/><text x="599.28" y="311" fill="#5b5f6b" font-family="Inter, system-ui, -apple-system, 'Segoe UI', Roboto, Arial, sans-serif" font-size="11.5" font-weight="500" text-anchor="middle">4×</text><path stroke="#888c96" d="M655.92 295v4"/><text x="655.92" y="311" fill="#5b5f6b" font-family="Inter, system-ui, -apple-system, 'Segoe UI', Roboto, Arial, sans-serif" font-size="11.5" font-weight="500" text-anchor="middle">6×</text><path stroke="#888c96" d="M712.56 295v4"/><text x="712.56" y="311" fill="#5b5f6b" font-family="Inter, system-ui, -apple-system, 'Segoe UI', Roboto, Arial, sans-serif" font-size="11.5" font-weight="500" text-anchor="middle">8×</text><path stroke="#888c96" d="M769.2 295v4"/><text x="769.2" y="311" fill="#5b5f6b" font-family="Inter, system-ui, -apple-system, 'Segoe UI', Roboto, Arial, sans-serif" font-size="11.5" font-weight="500" text-anchor="middle">10×</text><path stroke="#888c96" d="M825.84 295v4"/><text x="825.84" y="311" fill="#5b5f6b" font-family="Inter, system-ui, -apple-system, 'Segoe UI', Roboto, Arial, sans-serif" font-size="11.5" font-weight="500" text-anchor="middle">12×</text><path stroke="#c1c3c8" d="M20 320h840"/><text x="24" y="346" fill="#17181c" font-family="Inter, system-ui, -apple-system, 'Segoe UI', Roboto, Arial, sans-serif" font-size="15" font-weight="600">Looseness</text><text x="24" y="364" fill="#5b5f6b" font-family="Inter, system-ui, -apple-system, 'Segoe UI', Roboto, Arial, sans-serif" font-size="12.5" font-weight="500">a connection that has lost its grip</text><text x="24" y="384" fill="#0f1c8a" font-family="Inter, system-ui, -apple-system, 'Segoe UI', Roboto, Arial, sans-serif" font-size="12.5" font-weight="600">Signature: a long series of harmonics, plus half orders</text><path fill="#555962" d="M50 453h230v8H50z"/><rect width="110" height="40" x="110" y="411" fill="#edeef3" stroke="#555962" stroke-width="1.5" rx="5"/><circle cx="165" cy="431" r="8" fill="#fff" stroke="#555962" stroke-width="1.5"/><rect width="8" height="26" x="80" y="429" fill="#555962" rx="2"/><rect width="20" height="6" x="74" y="425" fill="#555962" rx="1"/><rect width="8" height="26" x="240" y="423" fill="#f5bb3d" rx="2"/><rect width="20" height="6" x="234" y="419" fill="#f5bb3d" rx="1"/><path stroke="#fff" stroke-width="3" d="M225 451h20"/><text x="258" y="423" fill="#73520d" font-family="Inter, system-ui, -apple-system, 'Segoe UI', Roboto, Arial, sans-serif" font-size="12" font-weight="600">loose bolt</text><rect width="19.8" height="112" x="488.8" y="338" fill="#cfd4fc" opacity=".6" rx="3"/><rect width="212.4" height="112" x="556.8" y="338" fill="#cfd4fc" opacity=".6" rx="3"/><path fill="#f5bb3d" d="m496.66 450 3.5-34 3.5 34Z"/><text x="500.16" y="409" fill="#73520d" font-family="Inter, system-ui, -apple-system, 'Segoe UI', Roboto, Arial, sans-serif" font-size="12" font-weight="600" text-anchor="middle">½×</text><path fill="#3d50f5" d="m510.82 450 3.5-84 3.5 84Z"/><text x="514.32" y="359" fill="#0f1c8a" font-family="Inter, system-ui, -apple-system, 'Segoe UI', Roboto, Arial, sans-serif" font-size="12" font-weight="600" text-anchor="middle">1×</text><path fill="#3d50f5" d="m539.14 450 3.5-52 3.5 52Zm28.32 0 3.5-48.8 3.5 48.8Zm28.32 0 3.5-45.6 3.5 45.6Zm28.32 0 3.5-42.4 3.5 42.4Z"/><text x="627.6" y="400.6" fill="#0f1c8a" font-family="Inter, system-ui, -apple-system, 'Segoe UI', Roboto, Arial, sans-serif" font-size="12" font-weight="600" text-anchor="middle">5×</text><path fill="#3d50f5" d="m652.42 450 3.5-39.2 3.5 39.2Zm28.32 0 3.5-36 3.5 36Zm28.32 0 3.5-32.8 3.5 32.8Zm28.32 0 3.5-29.6 3.5 29.6Z"/><path stroke="#888c96" stroke-linecap="round" stroke-width="1.5" marker-end="url(#chevGrey)" d="M482 450h366"/><path stroke="#888c96" d="M514.32 450v4"/><text x="514.32" y="466" fill="#5b5f6b" font-family="Inter, system-ui, -apple-system, 'Segoe UI', Roboto, Arial, sans-serif" font-size="11.5" font-weight="500" text-anchor="middle">1×</text><path stroke="#888c96" d="M542.64 450v4"/><text x="542.64" y="466" fill="#5b5f6b" font-family="Inter, system-ui, -apple-system, 'Segoe UI', Roboto, Arial, sans-serif" font-size="11.5" font-weight="500" text-anchor="middle">2×</text><path stroke="#888c96" d="M570.96 450v4"/><text x="570.96" y="466" fill="#5b5f6b" font-family="Inter, system-ui, -apple-system, 'Segoe UI', Roboto, Arial, sans-serif" font-size="11.5" font-weight="500" text-anchor="middle">3×</text><path stroke="#888c96" d="M599.28 450v4"/><text x="599.28" y="466" fill="#5b5f6b" font-family="Inter, system-ui, -apple-system, 'Segoe UI', Roboto, Arial, sans-serif" font-size="11.5" font-weight="500" text-anchor="middle">4×</text><path stroke="#888c96" d="M655.92 450v4"/><text x="655.92" y="466" fill="#5b5f6b" font-family="Inter, system-ui, -apple-system, 'Segoe UI', Roboto, Arial, sans-serif" font-size="11.5" font-weight="500" text-anchor="middle">6×</text><path stroke="#888c96" d="M712.56 450v4"/><text x="712.56" y="466" fill="#5b5f6b" font-family="Inter, system-ui, -apple-system, 'Segoe UI', Roboto, Arial, sans-serif" font-size="11.5" font-weight="500" text-anchor="middle">8×</text><path stroke="#888c96" d="M769.2 450v4"/><text x="769.2" y="466" fill="#5b5f6b" font-family="Inter, system-ui, -apple-system, 'Segoe UI', Roboto, Arial, sans-serif" font-size="11.5" font-weight="500" text-anchor="middle">10×</text><path stroke="#888c96" d="M825.84 450v4"/><text x="825.84" y="466" fill="#5b5f6b" font-family="Inter, system-ui, -apple-system, 'Segoe UI', Roboto, Arial, sans-serif" font-size="11.5" font-weight="500" text-anchor="middle">12×</text><path stroke="#c1c3c8" d="M20 475h840"/><text x="24" y="501" fill="#17181c" font-family="Inter, system-ui, -apple-system, 'Segoe UI', Roboto, Arial, sans-serif" font-size="15" font-weight="600">Bearing damage</text><text x="24" y="519" fill="#5b5f6b" font-family="Inter, system-ui, -apple-system, 'Segoe UI', Roboto, Arial, sans-serif" font-size="12.5" font-weight="500">a defect on a race or a rolling element</text><text x="24" y="539" fill="#0f1c8a" font-family="Inter, system-ui, -apple-system, 'Segoe UI', Roboto, Arial, sans-serif" font-size="12.5" font-weight="600">Signature: peaks between the orders, energy far above them</text><circle cx="160" cy="590" r="44" fill="#edeef3" stroke="#555962" stroke-width="1.5"/><circle cx="160" cy="590" r="34" fill="#fff" stroke="#555962"/><circle cx="160" cy="590" r="16" fill="#edeef3" stroke="#555962" stroke-width="1.5"/><circle cx="185" cy="590" r="7" fill="#fff" stroke="#555962"/><circle cx="177.7" cy="607.7" r="7" fill="#fff" stroke="#555962"/><circle cx="160" cy="615" r="7" fill="#fff" stroke="#555962"/><circle cx="142.3" cy="607.7" r="7" fill="#fff" stroke="#555962"/><circle cx="135" cy="590" r="7" fill="#fff" stroke="#555962"/><circle cx="142.3" cy="572.3" r="7" fill="#fff" stroke="#555962"/><circle cx="160" cy="565" r="7" fill="#fff" stroke="#555962"/><circle cx="177.7" cy="572.3" r="7" fill="#fff" stroke="#555962"/><circle cx="189.8" cy="564.9" r="5" fill="#f5bb3d" stroke="#fff" stroke-width="1.5"/><text x="212" y="564" fill="#73520d" font-family="Inter, system-ui, -apple-system, 'Segoe UI', Roboto, Arial, sans-serif" font-size="12" font-weight="600">defect on the race</text><rect width="68" height="112" x="769.2" y="493" fill="#fceac5" opacity=".6" rx="3"/><path fill="#3d50f5" d="m510.82 605 3.5-56 3.5 56Z"/><text x="514.32" y="542" fill="#0f1c8a" font-family="Inter, system-ui, -apple-system, 'Segoe UI', Roboto, Arial, sans-serif" font-size="12" font-weight="600" text-anchor="middle">1×</text><path fill="#3d50f5" d="m539.14 605 3.5-18 3.5 18Z"/><path fill="#f5bb3d" d="m583.89 605 3.5-34 3.5 34Z"/><text x="587.39" y="564" fill="#73520d" font-family="Inter, system-ui, -apple-system, 'Segoe UI', Roboto, Arial, sans-serif" font-size="12" font-weight="600" text-anchor="middle">BPFO 3.58×</text><path fill="#f5bb3d" d="m685.55 605 3.5-20 3.5 20Zm82.57 0 2.5-16.2 2.5 16.2Zm6 0 2.5-26.5 2.5 26.5Zm6 0 2.5-22.6 2.5 22.6Zm6 0 2.5-40.4 2.5 40.4Zm6 0 2.5-23.3 2.5 23.3Zm6 0 2.5-29.5 2.5 29.5Zm6 0 2.5-15.1 2.5 15.1Zm6 0 2.5-25.3 2.5 25.3Zm6 0 2.5-41.6 2.5 41.6Zm6 0 2.5-17.8 2.5 17.8Zm6 0 2.5-37.4 2.5 37.4Z"/><text x="794.69" y="507" fill="#73520d" font-family="Inter, system-ui, -apple-system, 'Segoe UI', Roboto, Arial, sans-serif" font-size="12" font-weight="600" text-anchor="middle">broadband energy</text><path stroke="#888c96" stroke-linecap="round" stroke-width="1.5" marker-end="url(#chevGrey)" d="M482 605h366"/><path stroke="#888c96" d="M514.32 605v4"/><text x="514.32" y="621" fill="#5b5f6b" font-family="Inter, system-ui, -apple-system, 'Segoe UI', Roboto, Arial, sans-serif" font-size="11.5" font-weight="500" text-anchor="middle">1×</text><path stroke="#888c96" d="M542.64 605v4"/><text x="542.64" y="621" fill="#5b5f6b" font-family="Inter, system-ui, -apple-system, 'Segoe UI', Roboto, Arial, sans-serif" font-size="11.5" font-weight="500" text-anchor="middle">2×</text><path stroke="#888c96" d="M570.96 605v4"/><text x="570.96" y="621" fill="#5b5f6b" font-family="Inter, system-ui, -apple-system, 'Segoe UI', Roboto, Arial, sans-serif" font-size="11.5" font-weight="500" text-anchor="middle">3×</text><path stroke="#888c96" d="M599.28 605v4"/><text x="599.28" y="621" fill="#5b5f6b" font-family="Inter, system-ui, -apple-system, 'Segoe UI', Roboto, Arial, sans-serif" font-size="11.5" font-weight="500" text-anchor="middle">4×</text><path stroke="#888c96" d="M655.92 605v4"/><text x="655.92" y="621" fill="#5b5f6b" font-family="Inter, system-ui, -apple-system, 'Segoe UI', Roboto, Arial, sans-serif" font-size="11.5" font-weight="500" text-anchor="middle">6×</text><path stroke="#888c96" d="M712.56 605v4"/><text x="712.56" y="621" fill="#5b5f6b" font-family="Inter, system-ui, -apple-system, 'Segoe UI', Roboto, Arial, sans-serif" font-size="11.5" font-weight="500" text-anchor="middle">8×</text><path stroke="#888c96" d="M769.2 605v4"/><text x="769.2" y="621" fill="#5b5f6b" font-family="Inter, system-ui, -apple-system, 'Segoe UI', Roboto, Arial, sans-serif" font-size="11.5" font-weight="500" text-anchor="middle">10×</text><path stroke="#888c96" d="M825.84 605v4"/><text x="825.84" y="621" fill="#5b5f6b" font-family="Inter, system-ui, -apple-system, 'Segoe UI', Roboto, Arial, sans-serif" font-size="11.5" font-weight="500" text-anchor="middle">12×</text></svg>