<svg xmlns="http://www.w3.org/2000/svg" width="56" height="36" fill="none" viewBox="0 0 56 36"><g fill-rule="evenodd" clip-path="url(#clip0_902_92772)" clip-rule="evenodd"><path fill="#804998" d="m25.917 9.146-7.639 2.919V0l7.639 2.627zM11.435 2.043v7.88l5.654 2.142V.097zm.595 7.297-.298-.097V2.724l.298-.097.297-.097.298-.097v7.103l-.298-.098zm1.488.39-.397-.098V2.335l.397-.097.397-.098.396-.097v7.979l-.396-.098zm1.785.583-.496-.195v-8.27l.496-.097.496-.194.596-.195v9.244l-.596-.195zm28.372-1.169-7.639 2.919V0l7.639 2.627zM29.19 2.043v7.88l5.655 2.142V.097zm.596 7.297-.298-.097V2.724l.298-.097.297-.097.297-.097v7.103l-.297-.098zm1.488.39-.397-.098V2.335l.397-.097.396-.098.397-.097v7.979l-.397-.098zm1.785.583-.496-.195v-8.27l.496-.097.496-.194.595-.195v9.244l-.595-.195zm-7.142 22.766-7.639 2.92V23.934l7.639 2.627zm-14.482-7.103v7.881L17.089 36V24.032zm.595 7.297-.298-.097V26.66l.298-.098.297-.097.298-.097v7.102l-.298-.097zm1.488.39-.397-.098V26.27l.397-.097.397-.097.396-.097v7.978l-.396-.097zm1.785.583-.496-.194v-8.27l.496-.097.496-.195.596-.194v9.243l-.596-.194-.496-.097zm28.372-1.167-7.639 2.92V23.934l7.639 2.627zM29.19 25.978v7.881L34.845 36V24.032zm.596 7.297-.298-.097V26.66l.298-.098.297-.097.297-.097v7.102l-.297-.097zm1.488.39-.397-.098V26.27l.397-.097.396-.097.397-.097v7.978l-.397-.097zm1.785.583-.496-.194v-8.27l.496-.097.496-.195.595-.194v9.243l-.595-.194-.496-.097zm2.282-13.135-7.54 2.822V11.968l7.54 2.627zm-14.483-7.2v7.881l5.654 2.141V11.968zm.595 7.298-.297-.098v-6.518l.297-.098.298-.097.297-.097v7.103l-.297-.097zm1.488.486-.397-.097v-7.297l.397-.098.397-.097.397-.097v7.978l-.397-.097zm1.786.584-.496-.195v-8.27l.496-.097.496-.195.595-.194v9.243l-.595-.194zm-7.044-1.168-7.54 2.822V11.968l7.54 2.627zM3.2 13.913v7.881l5.655 2.14V11.969zm.595 7.298-.297-.098v-6.518l.297-.098.298-.097.298-.097v7.103l-.298-.097zm1.488.486-.396-.097v-7.297l.396-.098.397-.097.397-.097v7.978l-.397-.097zm1.786.584-.496-.195v-8.27l.496-.097.496-.195.595-.194v9.243l-.595-.194zM52.8 21.113l-7.54 2.822V11.968l7.54 2.627z"/><path fill="#fff" d="m25.917 9.146-7.639 2.919V0l7.639 2.627zm17.758 0-7.639 2.919V0l7.639 2.627zM25.917 33.081l-7.639 2.92V23.934l7.639 2.627zm17.758 0-7.639 2.92V23.934l7.639 2.627zM35.34 21.113l-7.538 2.822V11.968l7.539 2.627zm-17.657 0-7.54 2.822V11.968l7.54 2.627zm35.117 0-7.54 2.822V11.968l7.54 2.627z" opacity=".2"/><path fill="#804998" d="M38.317 13.913v7.881l5.655 2.14V11.969zm.596 7.298-.298-.098v-6.518l.298-.098.297-.097.298-.097v7.103l-.298-.097zm1.488.486-.397-.097v-7.297l.397-.098.396-.097.397-.097v7.978l-.397-.097zm1.785.584-.496-.195v-8.27l.496-.097.496-.195.595-.194v9.243l-.595-.194z"/></g><defs><clipPath id="clip0_902_92772"><path fill="#fff" d="M0 0h56v36H0z"/></clipPath></defs></svg>